<svg width="356" height="106" viewBox="0 0 356 106" class="css-1j8o68f"><defs id="SvgjsDefs1001"><linearGradient id="SvgjsLinearGradient1015"><stop id="SvgjsStop1016" stop-color="#8f5e25" offset="0"></stop><stop id="SvgjsStop1017" stop-color="#fbf4a1" offset="0.5"></stop><stop id="SvgjsStop1018" stop-color="#8f5e25" offset="1"></stop></linearGradient><linearGradient id="SvgjsLinearGradient1019"><stop id="SvgjsStop1020" stop-color="#8f5e25" offset="0"></stop><stop id="SvgjsStop1021" stop-color="#fbf4a1" offset="0.5"></stop><stop id="SvgjsStop1022" stop-color="#8f5e25" offset="1"></stop></linearGradient><linearGradient id="SvgjsLinearGradient1023"><stop id="SvgjsStop1024" stop-color="#8f5e25" offset="0"></stop><stop id="SvgjsStop1025" stop-color="#fbf4a1" offset="0.5"></stop><stop id="SvgjsStop1026" stop-color="#8f5e25" offset="1"></stop></linearGradient><linearGradient id="SvgjsLinearGradient1027"><stop id="SvgjsStop1028" stop-color="#8f5e25" offset="0"></stop><stop id="SvgjsStop1029" stop-color="#fbf4a1" offset="0.5"></stop><stop id="SvgjsStop1030" stop-color="#8f5e25" offset="1"></stop></linearGradient></defs><g id="SvgjsG1007" featurekey="symbolFeature-0" transform="matrix(1.5243901014328003,0,0,1.5243901014328003,0.457316957932732,3.567074234467089)" fill="url(#SvgjsLinearGradient1015)"><path xmlns="http://www.w3.org/2000/svg" d="M61.7,51.2V19.7c0-1.5-1.2-2.8-2.8-2.8H47.2l1-3.4h0L49.6,9h4.1V7.5h-5.2l-1.8,6H17.1l1,3.4H6c-1.5,0-2.8,1.2-2.8,2.8v31.5  h-3.5v2.5l2.8,3.9h60l2.8-3.9v-2.5H61.7z M28.1,27.2l-0.8-5.3h4.6v5.3H28.1z M26.6,27.2h-3.8l-1.6-5.3h4.6L26.6,27.2z M31.9,20.3  h-4.9L26.3,15h5.7V20.3z M33.4,15h5.7l-0.8,5.3h-4.9V15z M33.4,21.8h4.6l-0.8,5.3h-3.8V21.8z M39.6,21.8h4.6l-1.6,5.3h-3.7  L39.6,21.8z M44.6,20.3h-4.8l0.8-5.3h5.6L44.6,20.3z M24.8,15l0.8,5.3h-4.8L19.1,15H24.8z M4.8,19.7c0-0.7,0.6-1.3,1.3-1.3h12.6  l3.1,10.3h20.4l-1.2,3.9c-0.1,0-0.2,0-0.3,0H25.5c-1.9,0-3.5,1.6-3.5,3.5c0,1.9,1.6,3.5,3.5,3.5c1.9,0,3.5-1.6,3.5-3.5  c0-0.8-0.2-1.4-0.6-2h9.4c-0.4,0.6-0.6,1.3-0.6,2c0,1.9,1.6,3.5,3.5,3.5c1.9,0,3.5-1.6,3.5-3.5c0-1.3-0.7-2.5-1.8-3.1l1.3-4.3h0  l3.1-10.3H59c0.7,0,1.3,0.6,1.3,1.3v31.5H4.8V19.7z M40.6,34c1.1,0,2,0.9,2,2c0,1.1-0.9,2-2,2c-1.1,0-2-0.9-2-2  C38.6,34.9,39.5,34,40.6,34z M27.5,36c0,1.1-0.9,2-2,2c-1.1,0-2-0.9-2-2c0-1.1,0.9-2,2-2C26.6,34,27.5,34.9,27.5,36z M63.8,53.2  l-2,2.8H3.3l-2-2.8v-0.5h62.5V53.2z"></path></g><g id="SvgjsG1008" featurekey="textGroupContainer" transform="matrix(1,0,0,1,355,0)" fill="url(#SvgjsLinearGradient1019)"><rect xmlns="http://www.w3.org/2000/svg" y="0" height="1" width="1" opacity="0"></rect><rect xmlns="http://www.w3.org/2000/svg" y="0" x="-235" width="3" height="106"></rect></g><g id="SvgjsG1009" featurekey="nameFeature-0" transform="matrix(1.1904761791229248,0,0,1.1904761791229248,137.04761882055374,14.142858051118397)" fill="url(#SvgjsLinearGradient1023)"><path d="M10.64 40.44 c-4.56 0 -7.28 -2 -7.28 -7.16 l0 -8.8 l-2.56 0 l0 -6.12 l2.56 0 l0 -5.48 l7.6 0 l0 5.48 l5.04 0 l0 6.12 l-5.04 0 l0 7.32 c0 1.52 0.68 2.16 2.08 2.16 c1 0 1.96 -0.28 2.88 -0.72 l0 5.96 c-1.36 0.76 -3.16 1.24 -5.28 1.24 z M29.4 40.52 c-6.8 0 -11.6 -4.52 -11.6 -11.24 l0 -0.08 c0 -6.32 4.52 -11.32 10.92 -11.32 c7.48 0 10.92 5.48 10.92 11.84 c0 0.48 0 1.04 -0.04 1.56 l-14.48 0 c0.6 2.36 2.32 3.56 4.68 3.56 c1.8 0 3.24 -0.68 4.8 -2.2 l4.2 3.48 c-2.08 2.64 -5.08 4.4 -9.4 4.4 z M25 27.4 l7.52 0 c-0.28 -2.4 -1.68 -3.92 -3.76 -3.92 c-2 0 -3.36 1.56 -3.76 3.92 z M53.32000000000001 40.52 c-6.52 0 -11.32 -5.12 -11.32 -11.24 l0 -0.08 c0 -6.12 4.76 -11.28 11.6 -11.28 c4.44 0 7.4 1.92 9.24 4.84 l-5.16 3.84 c-1.04 -1.44 -2.2 -2.28 -4.04 -2.28 c-2.44 0 -4.24 2.16 -4.24 4.8 l0 0.08 c0 2.8 1.76 4.92 4.32 4.92 c1.8 0 2.96 -0.84 4.16 -2.24 l5.08 3.68 c-2 2.96 -4.88 4.96 -9.64 4.96 z M65.64000000000001 40 l0 -29.2 l7.6 0 l0 10.52 c1.4 -1.8 3.4 -3.44 6.48 -3.44 c4.6 0 7.36 3.04 7.36 7.96 l0 14.16 l-7.6 0 l0 -11.72 c0 -2.36 -1.24 -3.64 -3.04 -3.64 c-1.84 0 -3.2 1.28 -3.2 3.64 l0 11.72 l-7.6 0 z M101.44000000000001 40.52 c-6.52 0 -11.32 -5.12 -11.32 -11.24 l0 -0.08 c0 -6.12 4.76 -11.28 11.6 -11.28 c4.44 0 7.4 1.92 9.24 4.84 l-5.16 3.84 c-1.04 -1.44 -2.2 -2.28 -4.04 -2.28 c-2.44 0 -4.24 2.16 -4.24 4.8 l0 0.08 c0 2.8 1.76 4.92 4.32 4.92 c1.8 0 2.96 -0.84 4.16 -2.24 l5.08 3.68 c-2 2.96 -4.88 4.96 -9.64 4.96 z M119.96000000000001 40.48 c-4.12 0 -7.28 -2.36 -7.28 -6.68 l0 -0.08 c0 -4.48 3.4 -6.8 8.48 -6.8 c2 0 3.96 0.4 5.2 0.84 l0 -0.36 c0 -2.24 -1.4 -3.52 -4.32 -3.52 c-2.28 0 -4.04 0.44 -5.96 1.2 l-1.56 -5.36 c2.44 -1 5.04 -1.68 8.76 -1.68 c3.88 0 6.52 0.92 8.24 2.64 c1.64 1.6 2.32 3.84 2.32 6.88 l0 12.44 l-7.52 0 l0 -2.24 c-1.48 1.64 -3.52 2.72 -6.36 2.72 z M122.68 35.72 c2.2 0 3.76 -1.4 3.76 -3.56 l0 -1 c-0.76 -0.32 -1.84 -0.56 -2.96 -0.56 c-2.2 0 -3.48 1.08 -3.48 2.68 l0 0.08 c0 1.48 1.12 2.36 2.68 2.36 z M137.72 40 l0 -21.64 l7.6 0 l0 4.36 c1.24 -2.96 3.24 -4.88 6.84 -4.72 l0 8 l-0.64 0 c-3.96 0 -6.2 2.28 -6.2 7.28 l0 6.72 l-7.6 0 z M163.44 40.44 c-4.56 0 -7.28 -2 -7.28 -7.16 l0 -8.8 l-2.56 0 l0 -6.12 l2.56 0 l0 -5.48 l7.6 0 l0 5.48 l5.04 0 l0 6.12 l-5.04 0 l0 7.32 c0 1.52 0.68 2.16 2.08 2.16 c1 0 1.96 -0.28 2.88 -0.72 l0 5.96 c-1.36 0.76 -3.16 1.24 -5.28 1.24 z"></path></g><g id="SvgjsG1010" featurekey="sloganFeature-0" transform="matrix(0.4835955500602722,0,0,0.4835955500602722,137.55509207550168,69.19514565202311)" fill="url(#SvgjsLinearGradient1027)"><path d="M0.92 18.54 c0.88 0.82 2.7 1.66 4.52 1.66 c2.8 0 4.58 -1.44 4.58 -3.7 c0 -1.84 -0.88 -2.92 -3.92 -4.64 c-2.32 -1.34 -2.88 -1.78 -2.88 -2.66 c0 -0.94 0.88 -1.68 2.36 -1.68 c0.86 0 2 0.38 2.66 0.8 l0.96 -1.44 c-0.94 -0.62 -2.42 -1.08 -3.6 -1.08 c-2.58 0 -4.3 1.48 -4.3 3.42 c0 1.72 0.86 2.58 3.5 4.02 c2.34 1.28 3.3 2.22 3.3 3.24 c0 1.2 -1.04 1.92 -2.66 1.92 c-1.4 0 -2.8 -0.66 -3.5 -1.3 z M18.813 6 l1.8 0 l0 14 l-1.8 0 l0 -6.44 l-6.94 0 l0 6.44 l-1.8 0 l0 -14 l1.8 0 l0 5.84 l6.94 0 l0 -5.84 z M28.066 20.2 c-4 0 -7.18 -3.2 -7.18 -7.2 s3.18 -7.2 7.18 -7.2 s7.18 3.2 7.18 7.2 s-3.18 7.2 -7.18 7.2 z M28.066 18.48 c3.04 0 5.32 -2.38 5.32 -5.48 s-2.28 -5.48 -5.32 -5.48 c-3.06 0 -5.34 2.38 -5.34 5.48 s2.28 5.48 5.34 5.48 z M40.839 6 c3.28 0 4.82 2.48 4.82 5.1 s-1.54 5.1 -4.82 5.1 l-3.5 0 l0 3.8 l-1.8 0 l0 -14 l5.3 0 z M40.759 14.48 c1.84 0 3.06 -1.42 3.06 -3.38 s-1.22 -3.38 -3.06 -3.38 l-3.42 0 l0 6.76 l3.42 0 z M49.025 6 l1.88 0 l3.08 9.54 l3.66 -9.74 l0.22 0 l3.7 9.74 l3.06 -9.54 l1.9 0 l-4.7 14.2 l-0.22 0 l-3.84 -10 l-3.86 10 l-0.2 0 z M66.158 20 l0 -14 l1.8 0 l0 14 l-1.8 0 z M77.53099999999999 7.720000000000001 l-4.08 0 l0 12.28 l-1.8 0 l0 -12.28 l-4.1 0 l0.12 -1.72 l9.74 0 z M85.904 6 l1.8 0 l0 14 l-1.8 0 l0 -6.44 l-6.94 0 l0 6.44 l-1.8 0 l0 -14 l1.8 0 l0 5.84 l6.94 0 l0 -5.84 z M95.15700000000001 20.2 c-4 0 -7.18 -3.2 -7.18 -7.2 s3.18 -7.2 7.18 -7.2 s7.18 3.2 7.18 7.2 s-3.18 7.2 -7.18 7.2 z M95.15700000000001 18.48 c3.04 0 5.32 -2.38 5.32 -5.48 s-2.28 -5.48 -5.32 -5.48 c-3.06 0 -5.34 2.38 -5.34 5.48 s2.28 5.48 5.34 5.48 z M102.49000000000001 14.46 l0 -8.46 l1.8 0 l0 8.32 c0 2.7 1.56 4.08 3.76 4.08 s3.78 -1.38 3.78 -4.08 l0 -8.32 l1.78 0 l0 8.46 c0 3.64 -2.08 5.74 -5.56 5.74 c-3.46 0 -5.56 -2.1 -5.56 -5.74 z M123.063 7.720000000000001 l-4.08 0 l0 12.28 l-1.8 0 l0 -12.28 l-4.1 0 l0.12 -1.72 l9.74 0 z M128.78900000000002 18.28 l5.92 0 l-0.12 1.72 l-7.6 0 l0 -14 l1.8 0 l0 12.28 z M134.342 20 l0 -14 l1.8 0 l0 14 l-1.8 0 z M150.35500000000005 5.800000000000001 l0.22 0 l0 14.2 l-1.78 0 l0 -9.42 l-4.96 6.48 l-0.12 0 l-4.96 -6.46 l0 9.4 l-1.78 0 l0 -14.2 l0.2 0 l6.6 8.4 z M151.40800000000002 20 l0 -14 l1.8 0 l0 14 l-1.8 0 z M162.78100000000003 7.720000000000001 l-4.08 0 l0 12.28 l-1.8 0 l0 -12.28 l-4.1 0 l0.12 -1.72 l9.74 0 z M161.63400000000001 18.54 c0.88 0.82 2.7 1.66 4.52 1.66 c2.8 0 4.58 -1.44 4.58 -3.7 c0 -1.84 -0.88 -2.92 -3.92 -4.64 c-2.32 -1.34 -2.88 -1.78 -2.88 -2.66 c0 -0.94 0.88 -1.68 2.36 -1.68 c0.86 0 2 0.38 2.66 0.8 l0.96 -1.44 c-0.94 -0.62 -2.42 -1.08 -3.6 -1.08 c-2.58 0 -4.3 1.48 -4.3 3.42 c0 1.72 0.86 2.58 3.5 4.02 c2.34 1.28 3.3 2.22 3.3 3.24 c0 1.2 -1.04 1.92 -2.66 1.92 c-1.4 0 -2.8 -0.66 -3.5 -1.3 z M184.28000000000003 20 l-1.22 -2.84 l-6.24 0 l-1.22 2.84 l-1.92 0 l6.16 -14.2 l0.2 0 l6.16 14.2 l-1.92 0 z M177.54000000000002 15.48 l4.8 0 l-2.4 -5.54 z M195.25300000000004 6 l1.8 0 l0 14.2 l-0.22 0 l-9.4 -9.98 l0 9.78 l-1.78 0 l0 -14.2 l0.2 0 l9.4 9.98 l0 -9.78 z M208.32600000000002 6 l-4.94 7.78 l0 6.22 l-1.8 0 l0 -6.2 l-4.96 -7.8 l2.04 0 l3.82 6.02 l3.8 -6.02 l2.04 0 z M216.65900000000002 7.720000000000001 l-4.08 0 l0 12.28 l-1.8 0 l0 -12.28 l-4.1 0 l0.12 -1.72 l9.74 0 z M216.292 20 l0 -14 l1.8 0 l0 14 l-1.8 0 z M232.30500000000004 5.800000000000001 l0.22 0 l0 14.2 l-1.78 0 l0 -9.42 l-4.96 6.48 l-0.12 0 l-4.96 -6.46 l0 9.4 l-1.78 0 l0 -14.2 l0.2 0 l6.6 8.4 z M241.758 18.28 l0.12 1.72 l-8.52 0 l0 -14 l8.12 0 l0.14 1.72 l-6.46 0 l0 3.42 l4.38 0 l0 1.72 l-4.38 0 l0 5.42 l6.6 0 z M242.35100000000003 17.759999999999998 l1.48 0 l-1.26 4.02 l-1.24 0 z M253.32400000000004 20 l-1.22 -2.84 l-6.24 0 l-1.22 2.84 l-1.92 0 l6.16 -14.2 l0.2 0 l6.16 14.2 l-1.92 0 z M246.58400000000003 15.48 l4.8 0 l-2.4 -5.54 z M264.297 6 l1.8 0 l0 14.2 l-0.22 0 l-9.4 -9.98 l0 9.78 l-1.78 0 l0 -14.2 l0.2 0 l9.4 9.98 l0 -9.78 z M277.37 6 l-4.94 7.78 l0 6.22 l-1.8 0 l0 -6.2 l-4.96 -7.8 l2.04 0 l3.82 6.02 l3.8 -6.02 l2.04 0 z M275.76300000000003 6 l1.88 0 l3.08 9.54 l3.66 -9.74 l0.22 0 l3.7 9.74 l3.06 -9.54 l1.9 0 l-4.7 14.2 l-0.22 0 l-3.84 -10 l-3.86 10 l-0.2 0 z M301.636 6 l1.8 0 l0 14 l-1.8 0 l0 -6.44 l-6.94 0 l0 6.44 l-1.8 0 l0 -14 l1.8 0 l0 5.84 l6.94 0 l0 -5.84 z M312.66900000000004 18.28 l0.12 1.72 l-8.52 0 l0 -14 l8.12 0 l0.14 1.72 l-6.46 0 l0 3.42 l4.38 0 l0 1.72 l-4.38 0 l0 5.42 l6.6 0 z M323.022 11.06 c0 2.26 -1.06 4.2 -3.24 4.84 l3.02 4.1 l-2.16 0 l-2.86 -3.88 l-3.14 0 l0 3.88 l-1.8 0 l0 -14 l5.28 0 c3.3 0 4.9 2.28 4.9 5.06 z M314.642 7.68 l0 6.74 l3.4 0 c2.26 0 3.18 -1.66 3.18 -3.36 s-0.92 -3.38 -3.18 -3.38 l-3.4 0 z M331.65500000000003 18.28 l0.12 1.72 l-8.52 0 l0 -14 l8.12 0 l0.14 1.72 l-6.46 0 l0 3.42 l4.38 0 l0 1.72 l-4.38 0 l0 5.42 l6.6 0 z"></path></g></svg>