<svg id="visual" viewBox="0 0 900 600" width="900" height="600" xmlns="http://www.w3.org/2000/svg" xmlns:xlink="http://www.w3.org/1999/xlink" version="1.1"><rect x="0" y="0" width="900" height="600" fill="#ffffff"></rect><g fill="#119CFD"><circle r="69" cx="348" cy="215"></circle><circle r="26" cx="468" cy="99"></circle><circle r="50" cx="248" cy="515"></circle><circle r="41" cx="815" cy="320"></circle><circle r="52" cx="571" cy="447"></circle><circle r="53" cx="558" cy="586"></circle><circle r="38" cx="646" cy="137"></circle><circle r="52" cx="516" cy="244"></circle><circle r="31" cx="19" cy="529"></circle><circle r="46" cx="801" cy="40"></circle><circle r="37" cx="215" cy="107"></circle><circle r="41" cx="200" cy="295"></circle><circle r="58" cx="103" cy="10"></circle><circle r="29" cx="821" cy="474"></circle><circle r="27" cx="440" cy="369"></circle><circle r="49" cx="94" cy="388"></circle><circle r="30" cx="711" cy="563"></circle><circle r="38" cx="411" cy="518"></circle><circle r="26" cx="7" cy="260"></circle><circle r="63" cx="665" cy="328"></circle><circle r="39" cx="352" cy="23"></circle><circle r="32" cx="885" cy="150"></circle><circle r="33" cx="589" cy="10"></circle></g></svg>